Coordinates
version=1
nRows=27
nColumns=33
inDegrees=yes

Units are S.I. units (second, meters, Newtons, ...)
Angles are in degrees.

endheader
time	ground_thorax_rot_x	ground_thorax_rot_y	ground_thorax_rot_z	ground_thorax_tx	ground_thorax_ty	ground_thorax_tz	clav_prot_r	clav_elev_r	scapula_abduction_r	scapula_elevation_r	scapula_upward_rot_r	scapula_winging_r	shoulder_elv_r	plane_of_elev_r	axial_rot_r	elbow_flexion_r	pro_sup_r	wrist_flex_r	wrist_dev_r	clav_prot_l	clav_elev_l	scapula_abduction_l	scapula_elevation_l	scapula_upward_rot_l	scapula_winging_l	shoulder_elv_l	plane_of_elev_l	axial_rot_l	elbow_flexion_l	pro_sup_l	wrist_flex_l	wrist_dev_l	
3.5500	-3.296857	4.691343	8.692108	-0.093568	1.026780	0.008856	16.702492	-13.782188	42.015270	-13.969894	23.268927	-11.360707	-3.094878	-55.257059	122.435019	-33.818579	-128.875730	-1.135150	6.236876	25.979547	-11.206350	-39.028283	-5.815452	-25.068688	13.372729	55.426119	2.030679	3.535260	13.494416	18.338970	16.921032	-6.897006	
3.5600	-3.278834	4.687814	8.728448	-0.093755	1.026652	0.008906	16.820492	-13.913532	41.905546	-13.965225	22.843991	-11.292617	-3.223144	-55.558968	122.205772	-34.298358	-131.418672	-0.435724	5.702853	25.768955	-11.126155	-38.693069	-5.889065	-25.053720	13.186214	55.427352	1.645897	3.621406	14.091407	17.490805	16.689130	-7.128844	
3.5700	-3.255503	4.708407	8.764507	-0.093903	1.026451	0.009004	16.857415	-13.978265	41.656313	-13.898435	22.390022	-11.202269	-3.363809	-55.780243	122.004000	-34.888674	-133.463883	0.087563	5.323953	25.558258	-11.039319	-38.356831	-5.994487	-25.096540	12.997216	55.470630	1.312794	3.800653	14.773180	16.923207	16.566361	-7.342097	
3.5800	-3.225202	4.739541	8.801134	-0.094085	1.026255	0.009097	16.840156	-14.066313	41.300198	-13.843753	21.901937	-11.047827	-3.524284	-56.027983	121.805439	-35.530223	-135.859620	0.608706	4.939892	25.311426	-10.972521	-37.957149	-6.097045	-25.164745	12.763149	55.558037	0.965153	3.975868	15.519450	16.395136	16.491208	-7.564639	
3.5900	-3.192614	4.787569	8.841536	-0.094291	1.026051	0.009200	16.758391	-14.172590	40.804425	-13.789680	21.353157	-10.820312	-3.703533	-56.279719	121.611898	-36.282901	-138.406287	1.076089	4.647870	25.040561	-10.921958	-37.513998	-6.208280	-25.278230	12.496141	55.702100	0.612545	4.179529	16.362803	16.021169	16.512817	-7.802486	
3.6000	-3.155742	4.845070	8.884142	-0.094537	1.025803	0.009314	16.620174	-14.270448	40.191890	-13.715787	20.756661	-10.546556	-3.910283	-56.527864	121.424639	-37.162728	-140.915893	1.484424	4.452775	24.757261	-10.864647	-37.049609	-6.344453	-25.431565	12.215712	55.871747	0.265359	4.453566	17.315368	15.788162	16.610704	-8.058238	
3.6100	-3.121489	4.913995	8.933440	-0.094831	1.025562	0.009432	16.437544	-14.403803	39.462889	-13.652237	20.087951	-10.201763	-4.147744	-56.800127	121.228760	-38.188889	-143.575554	1.849941	4.356634	24.462681	-10.816386	-36.563958	-6.495542	-25.631877	11.917737	56.087052	-0.097714	4.756955	18.381800	15.693119	16.802878	-8.338990	
3.6200	-3.085210	4.981994	8.985163	-0.095176	1.025282	0.009562	16.226045	-14.520740	38.669159	-13.563074	19.384176	-9.840007	-4.426133	-57.076100	121.032059	-39.355147	-146.058499	2.162760	4.327343	24.173360	-10.743754	-36.089130	-6.683267	-25.866969	11.630405	56.298039	-0.455637	5.139234	19.558253	15.694880	17.042594	-8.634198	
3.6300	-3.053839	5.051012	9.045893	-0.095582	1.025046	0.009687	16.002801	-14.685541	37.816986	-13.495399	18.619073	-9.426262	-4.747453	-57.401922	120.812692	-40.657266	-148.702908	2.461024	4.313083	23.883594	-10.674024	-35.612729	-6.887447	-26.142052	11.339259	56.533607	-0.842472	5.525457	20.837704	15.753434	17.344251	-8.945261	
3.6400	-3.016209	5.109916	9.113893	-0.096037	1.024801	0.009822	15.766902	-14.825405	36.941017	-13.399169	17.841105	-9.017920	-5.122842	-57.746323	120.592240	-42.069244	-151.161967	2.731304	4.261165	23.599315	-10.576267	-35.148892	-7.129728	-26.447790	11.060213	56.743652	-1.231967	5.963482	22.211553	15.829528	17.656512	-9.251296	
3.6500	-2.980563	5.167738	9.189618	-0.096534	1.024630	0.009960	15.519175	-14.998622	36.018650	-13.315448	17.017360	-8.570242	-5.551511	-58.136829	120.348149	-43.600668	-153.708025	2.982904	4.145924	23.311725	-10.484520	-34.679113	-7.389004	-26.799638	10.772725	56.982891	-1.655014	6.376676	23.686736	15.940947	18.019731	-9.544904	
3.6600	-2.933987	5.209420	9.267734	-0.097061	1.024477	0.010112	15.264103	-15.127507	35.095896	-13.191494	16.201892	-8.148810	-6.035577	-58.541509	120.104114	-45.215490	-156.006915	3.234140	3.948991	23.024179	-10.364017	-34.213701	-7.684574	-27.175528	10.491968	57.191169	-2.089006	6.816678	25.245621	16.028299	18.366933	-9.817399	
3.6700	-2.887857	5.241858	9.346973	-0.097620	1.024416	0.010268	15.011313	-15.277611	34.160422	-13.073029	15.356587	-7.710060	-6.574583	-58.990432	119.821920	-46.928843	-158.315216	3.502705	3.677336	22.730580	-10.245957	-33.739236	-7.993911	-27.583380	10.202236	57.422251	-2.572129	7.210952	26.895813	16.107007	18.735668	-10.067279	
3.6800	-2.826091	5.254183	9.416609	-0.098192	1.024390	0.010435	14.759225	-15.368488	33.250357	-12.906530	14.539062	-7.316985	-7.163811	-59.448750	119.528254	-48.697852	-160.346620	3.804246	3.347428	22.430484	-10.097881	-33.258863	-8.332180	-27.995839	9.914058	57.615061	-3.073678	7.611005	28.609659	16.122049	19.054749	-10.294340	
3.6900	-2.765816	5.249862	9.484630	-0.098770	1.024471	0.010603	14.508455	-15.475538	32.338624	-12.746630	13.710426	-6.912672	-7.823700	-59.955173	119.183479	-50.540166	-162.382075	4.138502	2.953771	22.113208	-9.949058	-32.751644	-8.680839	-28.425432	9.607814	57.826919	-3.637749	7.951109	30.396853	16.096957	19.367041	-10.488202	
3.7000	-2.692871	5.219297	9.554452	-0.099352	1.024587	0.010775	14.257379	-15.526729	31.452288	-12.542481	12.912328	-6.551264	-8.547935	-60.484384	118.828234	-52.420407	-164.194080	4.518575	2.528148	21.782002	-9.768736	-32.226282	-9.056904	-28.852188	9.296189	57.997552	-4.237994	8.269047	32.228529	15.995022	19.612939	-10.661849	
3.7100	-2.617043	5.167381	9.644173	-0.099950	1.024768	0.010947	14.012722	-15.572801	30.572807	-12.325140	12.101697	-6.195711	-9.342852	-61.062902	118.437176	-54.349067	-165.955691	4.939961	2.065413	21.436477	-9.579909	-31.679763	-9.448775	-29.293322	8.971066	58.164412	-4.909831	8.504538	34.118347	15.843241	19.825200	-10.817956	
3.7200	-2.529104	5.095153	9.741442	-0.100560	1.024982	0.011119	13.774591	-15.579836	29.715707	-12.071144	11.299644	-5.872703	-10.198663	-61.669541	118.016290	-56.301221	-167.537992	5.417642	1.572303	21.079766	-9.372102	-31.117720	-9.855195	-29.727371	8.640147	58.303088	-5.640776	8.669524	36.050942	15.616444	19.959962	-10.963866	
3.7300	-2.438268	5.006877	9.839857	-0.101175	1.025253	0.011288	13.540369	-15.583746	28.863502	-11.806976	10.488403	-5.552567	-11.112686	-62.314056	117.552990	-58.282852	-169.063011	5.945509	1.037215	20.711972	-9.157490	-30.538266	-10.268306	-30.159507	8.299035	58.443817	-6.441202	8.749078	38.029275	15.337020	20.045972	-11.096582	
3.7400	-2.343391	4.903945	9.932206	-0.101779	1.025566	0.011448	13.301777	-15.577824	28.013360	-11.532151	9.683462	-5.237435	-12.097820	-62.998406	117.042197	-60.274155	-170.490026	6.549063	0.442658	20.327850	-8.927697	-29.932123	-10.686190	-30.569550	7.946609	58.574801	-7.309444	8.744505	40.043497	14.978444	20.052748	-11.210242	
3.7500	-2.242212	4.790323	10.022794	-0.102375	1.025891	0.011594	13.057036	-15.550583	27.160044	-11.235120	8.881478	-4.931350	-13.128892	-63.718589	116.510992	-62.263652	-171.814713	7.213937	-0.186787	19.934646	-8.676655	-29.311655	-11.119001	-30.967881	7.588541	58.689395	-8.225109	8.670140	42.087865	14.566988	20.002308	-11.318750	
3.7600	-2.140199	4.669170	10.111540	-0.102964	1.026227	0.011731	12.806940	-15.514322	26.298946	-10.922397	8.070895	-4.625270	-14.211789	-64.472197	115.941293	-64.240983	-173.034498	7.961870	-0.875397	19.530004	-8.409711	-28.671807	-11.557774	-31.345143	7.222378	58.802148	-9.204674	8.510684	44.158081	14.097176	19.885337	-11.418798	
3.7700	-2.030175	4.537309	10.205864	-0.103550	1.026524	0.011859	12.547084	-15.431027	25.431040	-10.564143	7.264270	-4.341000	-15.306169	-65.245179	115.395857	-66.188802	-174.070351	8.766910	-1.570448	19.125770	-8.111015	-28.033940	-12.023210	-31.716614	6.859837	58.884491	-10.207960	8.321180	46.232301	13.610199	19.724629	-11.538141	
3.7800	-1.916845	4.395517	10.314392	-0.104134	1.026785	0.011978	12.277131	-15.318642	24.548682	-10.172754	6.450378	-4.065046	-16.428063	-66.048199	114.854660	-68.097833	-174.930310	9.649506	-2.298129	18.716909	-7.788491	-27.388032	-12.507623	-32.079955	6.494655	58.948993	-11.256279	8.079087	48.310016	13.108391	19.515790	-11.675567	
3.7900	-1.796554	4.246507	10.428220	-0.104717	1.027009	0.012096	11.997214	-15.170975	23.653399	-9.742911	5.630223	-3.802899	-17.556068	-66.867966	114.320459	-69.949992	-175.524682	10.626315	-3.057612	18.306699	-7.445527	-26.737738	-13.005235	-32.429616	6.130287	58.996546	-12.341001	7.793157	50.374263	12.615321	19.254195	-11.850201	
3.8000	-1.685755	4.091691	10.532612	-0.105264	1.027264	0.012214	11.695226	-15.052621	22.721967	-9.334227	4.804142	-3.506359	-18.757991	-67.730307	113.709389	-71.737427	-175.966018	11.752140	-3.929132	17.870079	-7.098873	-26.035093	-13.489845	-32.737518	5.741881	59.069742	-13.505367	7.417164	52.421651	12.112156	18.923173	-12.034918	
3.8100	-1.577942	3.927147	10.616302	-0.105772	1.027529	0.012326	11.369164	-14.929808	21.770248	-8.927901	4.004772	-3.199878	-20.003024	-68.617127	113.066074	-73.436262	-176.214693	12.986572	-4.857854	17.415620	-6.734654	-25.295711	-13.976145	-33.009346	5.338400	59.141545	-14.705328	7.016428	54.427413	11.622924	18.539542	-12.246515	
